<?xml version="1.0" encoding="utf-8"?>
<!-- Generator: Adobe Illustrator 26.3.1, SVG Export Plug-In . SVG Version: 6.00 Build 0)  -->
<svg version="1.1" id="Слой_1" xmlns="http://www.w3.org/2000/svg" xmlns:xlink="http://www.w3.org/1999/xlink" x="0px" y="0px"
	 viewBox="0 0 350 328.9" style="enable-background:new 0 0 350 328.9;" xml:space="preserve">
<style type="text/css">
	.st0{fill:#FFFFFF;}
</style>
<rect x="611.6" y="-86.5" width="350" height="328.9"/>
<g id="SvgjsG1007" transform="matrix(0.3701527614571093,0,0,0.3701527614571093,18,4)">
	<g>
		<path class="st0" d="M-675.9,280.4c77,80-127-152-127-152c-104,21-208,44-312,63c-6,2-237,146-261,162c0,0,66,5,68,8s0,254,1,256
			c0,0,301-1,301-2c0-35,2-298,1-298c-4,2-74-11-73-12c91-53,181-108,273-160C-803.9,144.4-686.9,268.4-675.9,280.4z M-1115.9,378.4
			h-72v219h72V378.4z"/>
		<path class="st0" d="M-749.9,401.4c1-3-133-21-133-23v139c24,2,131,7,131,7S-751.9,423.4-749.9,401.4z"/>
		<path class="st0" d="M-553.9,295.4c2,2,1,292,1,321c0,1-83,3-83,1c-1-4-3-212-1-238c0,0,33,9,44,12c11,2,11,2,0-12
			c-5-6-57-71-57-72C-648.9,307.4-554.9,293.4-553.9,295.4z"/>
		<polygon class="st0" points="-524.9,294.4 -541.9,294.4 -541.9,617.4 -524.9,617.4 		"/>
		<path class="st0" d="M-549.9,626.4h-775c-9,0-17,8-17,18l0,0c0,9,8,17,17,17h775c10,0,18-8,18-17l0,0
			C-531.9,634.4-539.9,626.4-549.9,626.4z"/>
		<polygon class="st0" points="-790.9,308.4 -831.9,296.4 -830.9,345.4 -790.9,353.4 		"/>
		<polygon class="st0" points="-1030.9,66.4 -1115.9,66.4 -1114.9,185.4 -1030.9,169.4 		"/>
	</g>
</g>
<g id="SvgjsG1008" transform="matrix(4.1041272713170125,0,0,4.1041272713170125,-4.186208759963145,245.9498155991226)">
	<path class="st0" d="M-47,50.7c11.1,0,22.4,7.4,22.4,26.1v33.8h-18V78c0-9-3.1-11.8-8.8-11.8c-8.1,0-12.8,7.8-13.9,11.2v33.1h-18
		V30.4h18v31.4C-64.2,58.9-58.2,50.7-47,50.7z"/>
</g>
<g id="SvgjsG1008_00000163033818755668150100000006473683766883018370_" transform="matrix(3.429355363241717,0,0,3.429355363241717,-4.115226599414467,250.1097382391004)">
	<path class="st0" d="M68.8-73.4h22.3v96.8H68.8v-38.3H32.1v38.3H9.8v-96.8h22.3v38h36.7V-73.4z"/>
</g>
</svg>
