<?xml version="1.0" encoding="utf-8"?>
<!-- Generator: Adobe Illustrator 26.3.1, SVG Export Plug-In . SVG Version: 6.00 Build 0)  -->
<svg version="1.1" id="Слой_1" xmlns="http://www.w3.org/2000/svg" xmlns:xlink="http://www.w3.org/1999/xlink" x="0px" y="0px"
	 viewBox="0 0 350 328.9" style="enable-background:new 0 0 350 328.9;" xml:space="preserve">
<style type="text/css">
	.st0{fill:#FFFFFF;}
</style>
<g id="SvgjsG1007" transform="matrix(0.3701527614571093,0,0,0.3701527614571093,18,4)">
	<g>
		<path class="st0" d="M700,214c77,80-127-152-127-152c-104,21-208,44-312,63c-6,2-237,146-261,162c0,0,66,5,68,8c2,3,0,254,1,256
			c0,0,301-1,301-2c0-35,2-298,1-298c-4,2-74-11-73-12c91-53,181-108,273-160C572,78,689,202,700,214z M260,312h-72v219h72V312z"/>
		<path class="st0" d="M626,335c1-3-133-21-133-23v139c24,2,131,7,131,7S624,357,626,335z"/>
		<path class="st0" d="M822,229c2,2,1,292,1,321c0,1-83,3-83,1c-1-4-3-212-1-238c0,0,33,9,44,12c11,2,11,2,0-12c-5-6-57-71-57-72
			C727,241,821,227,822,229z"/>
		<polygon class="st0" points="851,228 834,228 834,551 851,551 		"/>
		<path class="st0" d="M826,560H51c-9,0-17,8-17,18l0,0c0,9,8,17,17,17h775c10,0,18-8,18-17l0,0C844,568,836,560,826,560z"/>
		<polygon class="st0" points="585,242 544,230 545,279 585,287 		"/>
		<polygon class="st0" points="345,0 260,0 261,119 345,103 		"/>
	</g>
</g>
<g id="SvgjsG1008" transform="matrix(4.1041272713170125,0,0,4.1041272713170125,-4.186208759963145,245.9498155991226)">
	<path class="st0" d="M7.4,9.4c1.9,0,3.9,1.3,3.9,4.6v6H8.2v-5.7c0-1.6-0.5-2.1-1.5-2.1c-1.4,0-2.2,1.4-2.4,2V20H1V5.9h3.2v5.5
		C4.4,10.9,5.4,9.4,7.4,9.4z M18.4,9.4c2.4,0,5.5,1.8,5.5,5.4c0,3.7-3.1,5.4-5.5,5.4s-5.5-1.7-5.5-5.4C12.9,11.2,16,9.4,18.4,9.4z
		 M18.4,12.2c-1.2,0-2.4,0.9-2.4,2.6c0,1.7,1.2,2.6,2.4,2.6s2.4-0.9,2.4-2.6C20.8,13.1,19.6,12.2,18.4,12.2z M30.7,17.4
		c0.6,0,1-0.1,1.4-0.2v2.6c-0.4,0.2-1.2,0.3-2.2,0.3c-1.7,0-3.2-0.6-3.2-3.8v-4.1h-1.5V9.6h1.5V7.2h3.2v2.4H32v2.6h-2.2v4.1
		C29.8,16.8,29.9,17.4,30.7,17.4z M38.9,9.4c2.4,0,5.7,1.8,5,6.5h-7.3c0.4,1.1,1.3,1.6,2.6,1.6c1.3,0,1.7-0.3,2.4-0.6l1.7,1.7
		c-0.9,0.9-2.2,1.6-4.3,1.6c-2.6,0-5.7-1.8-5.7-5.4C33.4,11.2,36.5,9.4,38.9,9.4z M38.9,12.1c-0.9,0-1.8,0.5-2.2,1.6h4.4
		C40.8,12.6,39.8,12.1,38.9,12.1L38.9,12.1z M48.9,5.9V20h-3.2V5.9C45.7,5.9,48.9,5.9,48.9,5.9z M57.3,9.4c1.9,0,3.9,1.3,3.9,4.6v6
		H58v-5.7c0-1.6-0.5-2.1-1.5-2.1c-1.4,0-2.2,1.4-2.4,2V20h-3.2V5.9h3.2v5.5C54.3,10.9,55.3,9.4,57.3,9.4z M66.9,20.2
		c-1.9,0-3.9-1.3-3.9-4.6v-6h3.2v5.7c0,1.6,0.5,2.1,1.5,2.1c1.4,0,2.2-1.4,2.4-2V9.6h3.2V20h-3.2v-1.8
		C69.9,18.7,68.9,20.2,66.9,20.2L66.9,20.2z M81.2,9.4c2.4,0,5.1,1.8,5.1,5.4c0,3.7-2.7,5.4-5.1,5.4c-1.6,0-2.5-0.9-2.7-1.2v1h-3.2
		V9.6V5.9h3.2v4.7C78.6,10.3,79.6,9.4,81.2,9.4z M80.7,17.4c1.4,0,2.5-0.9,2.5-2.6c0-1.7-1.2-2.6-2.5-2.6c-1.3,0-2.4,0.9-2.4,2.6
		C78.4,16.5,79.4,17.4,80.7,17.4z"/>
</g>
</svg>
