<?xml version="1.0" encoding="UTF-8" standalone="no"?>
<svg
   height="206.85318961092685"
   width="350"
   style="width: 350px; height: 206.853px; position: absolute; top: 50%; left: 50%; transform: translate(-50%, -50%) scale(1); z-index: 0; cursor: pointer; overflow: visible;"
   version="1.1"
   id="svg25"
   sodipodi:docname="logo.svg"
   xmlns:inkscape="http://www.inkscape.org/namespaces/inkscape"
   xmlns:sodipodi="http://sodipodi.sourceforge.net/DTD/sodipodi-0.dtd"
   xmlns="http://www.w3.org/2000/svg"
   xmlns:svg="http://www.w3.org/2000/svg">
  <sodipodi:namedview
     id="namedview27"
     pagecolor="#ffffff"
     bordercolor="#000000"
     borderopacity="0.25"
     inkscape:showpageshadow="2"
     inkscape:pageopacity="0.0"
     inkscape:pagecheckerboard="0"
     inkscape:deskcolor="#d1d1d1" />
  <defs
     id="SvgjsDefs1001" />
  <g
     id="SvgjsG1007"
     featurekey="7KWit6-0"
     transform="matrix(0.1645123384253819,0,0,0.1645123384253819,105,4)"
     fill="#ffffff">
    <defs
       id="defs3" />
    <g
       id="g19">
      <path
         class="fil0"
         d="M700 214c77,80 -127,-152 -127,-152 -104,21 -208,44 -312,63 -6,2 -237,146 -261,162 0,0 66,5 68,8 2,3 0,254 1,256 0,0 301,-1 301,-2 0,-35 2,-298 1,-298 -4,2 -74,-11 -73,-12 91,-53 181,-108 273,-160 1,-1 118,123 129,135zm-440 98l-72 0 0 219 72 0 0 -219z"
         style="fill: #ffffff;"
         id="path5" />
      <path
         class="fil0"
         d="M626 335c1,-3 -133,-21 -133,-23 0,0 0,139 0,139 24,2 131,7 131,7 0,0 0,-101 2,-123z"
         style="fill: #ffffff;"
         id="path7" />
      <path
         class="fil0"
         d="M822 229c2,2 1,292 1,321 0,1 -83,3 -83,1 -1,-4 -3,-212 -1,-238 0,0 33,9 44,12 11,2 11,2 0,-12 -5,-6 -57,-71 -57,-72 1,0 95,-14 96,-12z"
         style="fill: #ffffff;"
         id="path9" />
      <polygon
         class="fil0"
         points="851,228 834,228 834,551 851,551 "
         style="fill: #ffffff;"
         id="polygon11" />
      <path
         class="fil0"
         d="M826 560l-775 0c-9,0 -17,8 -17,18l0 0c0,9 8,17 17,17l775 0c10,0 18,-8 18,-17l0 0c0,-10 -8,-18 -18,-18z"
         style="fill: #ffffff;"
         id="path13" />
      <polygon
         class="fil0"
         points="585,242 544,230 545,279 585,287 "
         style="fill: #ffffff;"
         id="polygon15" />
      <polygon
         class="fil0"
         points="345,0 260,0 261,119 345,103 "
         style="fill: #ffffff;"
         id="polygon17" />
    </g>
  </g>
  <g
     id="SvgjsG1008"
     featurekey="ewgXDI-0"
     transform="matrix(4.1041272713170125,0,0,4.1041272713170125,-4.186208759963145,123.94981559912259)"
     fill="#ffffff">
    <path
       d="M7.4 9.44 c1.94 0 3.92 1.3 3.92 4.6 l0 5.96 l-3.16 0 l0 -5.74 c0 -1.58 -0.54 -2.08 -1.54 -2.08 c-1.42 0 -2.24 1.38 -2.44 1.98 l0 5.84 l-3.16 0 l0 -14.14 l3.16 0 l0 5.54 c0.2 -0.5 1.26 -1.96 3.22 -1.96 z M18.4 9.42 c2.36 0 5.48 1.78 5.48 5.42 c0 3.66 -3.12 5.36 -5.48 5.36 s-5.48 -1.7 -5.48 -5.36 c0 -3.64 3.12 -5.42 5.48 -5.42 z M18.4 12.2 c-1.2 0 -2.42 0.92 -2.42 2.64 c0 1.66 1.22 2.58 2.42 2.58 s2.44 -0.92 2.44 -2.58 c0 -1.72 -1.24 -2.64 -2.44 -2.64 z M30.659999999999997 17.36 c0.56 0 0.96 -0.08 1.4 -0.2 l0 2.62 c-0.44 0.2 -1.16 0.34 -2.22 0.34 c-1.74 0 -3.2 -0.58 -3.2 -3.78 l0 -4.14 l-1.46 0 l0 -2.6 l1.46 0 l0 -2.44 l3.16 0 l0 2.44 l2.22 0 l0 2.6 l-2.22 0 l0 4.14 c0 0.46 0.12 1.02 0.86 1.02 z M38.9 9.42 c2.36 0 5.66 1.78 5 6.48 l-7.26 0 c0.36 1.08 1.3 1.64 2.56 1.64 c1.28 0 1.68 -0.28 2.4 -0.58 l1.74 1.68 c-0.92 0.9 -2.16 1.56 -4.26 1.56 c-2.58 0 -5.66 -1.78 -5.66 -5.36 c0 -3.64 3.12 -5.42 5.48 -5.42 z M38.9 12.120000000000001 c-0.9 0 -1.82 0.52 -2.22 1.56 l4.42 0 c-0.32 -1.04 -1.3 -1.56 -2.2 -1.56 z M48.86 5.859999999999999 l0 14.14 l-3.16 0 l0 -14.14 l3.16 0 z M57.28 9.44 c1.94 0 3.92 1.3 3.92 4.6 l0 5.96 l-3.16 0 l0 -5.74 c0 -1.58 -0.54 -2.08 -1.54 -2.08 c-1.42 0 -2.24 1.38 -2.44 1.98 l0 5.84 l-3.16 0 l0 -14.14 l3.16 0 l0 5.54 c0.2 -0.5 1.26 -1.96 3.22 -1.96 z M66.92 20.16 c-1.94 0 -3.92 -1.3 -3.92 -4.6 l0 -5.96 l3.16 0 l0 5.74 c0 1.58 0.54 2.08 1.54 2.08 c1.42 0 2.24 -1.38 2.44 -1.98 l0 -5.84 l3.16 0 l0 10.4 l-3.16 0 l0 -1.8 c-0.2 0.5 -1.26 1.96 -3.22 1.96 z M81.18 9.42 c2.38 0 5.12 1.78 5.12 5.36 c0 3.72 -2.74 5.42 -5.12 5.42 c-1.6 0 -2.54 -0.88 -2.68 -1.24 l0 1.04 l-3.16 0 l0 -10.4 l0 -3.74 l3.16 0 l0 4.7 c0.14 -0.22 1.08 -1.14 2.68 -1.14 z M80.72000000000001 17.42 c1.36 0 2.52 -0.92 2.52 -2.64 c0 -1.66 -1.16 -2.58 -2.52 -2.58 c-1.3 0 -2.36 0.9 -2.36 2.58 c0 1.74 1.06 2.64 2.36 2.64 z"
       id="path22" />
  </g>
</svg>
