<svg height="319.7256494965168" width="350" style="width: 350px; height: 319.726px; position: absolute; top: 50%; left: 50%; transform: translate(-50%, -50%) scale(1); z-index: 0; cursor: pointer; overflow: visible;"><defs id="SvgjsDefs1001"></defs><g id="SvgjsG1007" featurekey="7KWit6-0" transform="matrix(0.3701527614571093,0,0,0.3701527614571093,18,4)" fill="#ffffff"><defs xmlns="http://www.w3.org/2000/svg"></defs><g xmlns="http://www.w3.org/2000/svg"><path class="fil0" d="M700 214c77,80 -127,-152 -127,-152 -104,21 -208,44 -312,63 -6,2 -237,146 -261,162 0,0 66,5 68,8 2,3 0,254 1,256 0,0 301,-1 301,-2 0,-35 2,-298 1,-298 -4,2 -74,-11 -73,-12 91,-53 181,-108 273,-160 1,-1 118,123 129,135zm-440 98l-72 0 0 219 72 0 0 -219z" style="fill: #ffffff;"></path><path class="fil0" d="M626 335c1,-3 -133,-21 -133,-23 0,0 0,139 0,139 24,2 131,7 131,7 0,0 0,-101 2,-123z" style="fill: #ffffff;"></path><path class="fil0" d="M822 229c2,2 1,292 1,321 0,1 -83,3 -83,1 -1,-4 -3,-212 -1,-238 0,0 33,9 44,12 11,2 11,2 0,-12 -5,-6 -57,-71 -57,-72 1,0 95,-14 96,-12z" style="fill: #ffffff;"></path><polygon class="fil0" points="851,228 834,228 834,551 851,551 " style="fill: #ffffff;"></polygon><path class="fil0" d="M826 560l-775 0c-9,0 -17,8 -17,18l0 0c0,9 8,17 17,17l775 0c10,0 18,-8 18,-17l0 0c0,-10 -8,-18 -18,-18z" style="fill: #ffffff;"></path><polygon class="fil0" points="585,242 544,230 545,279 585,287 " style="fill: #ffffff;"></polygon><polygon class="fil0" points="345,0 260,0 261,119 345,103 " style="fill: #ffffff;"></polygon></g></g><g id="SvgjsG1008" featurekey="ewgXDI-0" transform="matrix(3.429355363241717,0,0,3.429355363241717,-4.115226599414467,250.1097382391004)" fill="#ffffff"><path d="M9.72 6 l3.22 0 l0 14 l-3.22 0 l0 -5.54 l-5.3 0 l0 5.54 l-3.22 0 l0 -14 l3.22 0 l0 5.5 l5.3 0 l0 -5.5 z M22.32 5.800000000000001 c3.96 0 7.28 2.94 7.28 7.2 s-3.32 7.2 -7.28 7.2 s-7.28 -2.94 -7.28 -7.2 s3.32 -7.2 7.28 -7.2 z M22.32 17.18 c2.26 0 3.94 -1.76 3.94 -4.18 s-1.68 -4.18 -3.94 -4.18 s-3.92 1.76 -3.92 4.18 s1.66 4.18 3.92 4.18 z M41.34 6 l0 2.96 l-3.4 0 l0 11.04 l-3.22 0 l0 -11.04 l-3.4 0 l0 -2.96 l10.02 0 z M46.56 17.04 l5.74 0 l0 2.96 l-6.14 0 l-2.82 0 l0 -14 l3.22 0 l5.56 0 l0 2.96 l-5.56 0 l0 2.54 l4.16 0 l0 2.9 l-4.16 0 l0 2.64 z M57.620000000000005 17.04 l5.32 0 l0 2.96 l-8.54 0 l0 -14 l3.22 0 l0 11.04 z M73.46000000000001 6 l3.22 0 l0 14 l-3.22 0 l0 -5.54 l-5.3 0 l0 5.54 l-3.22 0 l0 -14 l3.22 0 l0 5.5 l5.3 0 l0 -5.5 z M86.84 6 l3.22 0 l0 8.92 c0 3.38 -2.52 5.38 -5.48 5.38 c-2.98 0 -5.5 -2 -5.5 -5.38 l0 -8.92 l3.22 0 l0 8.94 c0 1.92 1.3 2.34 2.28 2.34 s2.26 -0.42 2.26 -2.34 l0 -8.94 z M100.41999999999999 12.219999999999999 c1.4 0.4 2.84 1.66 2.84 3.66 c0 2.56 -1.6 4.12 -5.1 4.12 l-5.7 0 l0 -14 l5.32 0 c2.94 0 4.42 1.66 4.42 3.54 c0 1.54 -1 2.32 -1.78 2.68 z M97.47999999999999 8.8 l-1.8 0 l0 2.5 l1.8 0 c1.14 0 1.52 -0.52 1.52 -1.26 c0 -0.8 -0.48 -1.24 -1.52 -1.24 z M97.97999999999999 17.2 c1.42 0 2.06 -0.6 2.06 -1.74 c0 -0.96 -0.64 -1.58 -2.22 -1.58 l-2.14 0 l0 3.32 l2.3 0 z"></path></g></svg>